<svg width="32" height="32" viewBox="0 0 32 32" fill="none" xmlns="http://www.w3.org/2000/svg">
  <defs>
    <linearGradient id="gradient" x1="0%" y1="0%" x2="100%" y2="100%">
      <stop offset="0%" style="stop-color:#3B82F6;stop-opacity:1" />
      <stop offset="100%" style="stop-color:#1E40AF;stop-opacity:1" />
    </linearGradient>
  </defs>
  
  <!-- Background Circle -->
  <circle cx="16" cy="16" r="15" fill="url(#gradient)" stroke="#1E40AF" stroke-width="2"/>
  
  <!-- AI Brain/Circuit Pattern -->
  <g fill="white" opacity="0.9">
    <!-- Central Node -->
    <circle cx="16" cy="16" r="2.5" fill="white"/>
    
    <!-- Neural Network Lines -->
    <line x1="16" y1="8" x2="16" y2="13.5" stroke="white" stroke-width="1.5" opacity="0.8"/>
    <line x1="16" y1="18.5" x2="16" y2="24" stroke="white" stroke-width="1.5" opacity="0.8"/>
    <line x1="8" y1="16" x2="13.5" y2="16" stroke="white" stroke-width="1.5" opacity="0.8"/>
    <line x1="18.5" y1="16" x2="24" y2="16" stroke="white" stroke-width="1.5" opacity="0.8"/>
    
    <!-- Diagonal connections -->
    <line x1="11.5" y1="11.5" x2="13.5" y2="13.5" stroke="white" stroke-width="1" opacity="0.6"/>
    <line x1="18.5" y1="18.5" x2="20.5" y2="20.5" stroke="white" stroke-width="1" opacity="0.6"/>
    <line x1="20.5" y1="11.5" x2="18.5" y2="13.5" stroke="white" stroke-width="1" opacity="0.6"/>
    <line x1="13.5" y1="18.5" x2="11.5" y2="20.5" stroke="white" stroke-width="1" opacity="0.6"/>
    
    <!-- Outer Nodes -->
    <circle cx="16" cy="8" r="1.5" fill="white" opacity="0.8"/>
    <circle cx="16" cy="24" r="1.5" fill="white" opacity="0.8"/>
    <circle cx="8" cy="16" r="1.5" fill="white" opacity="0.8"/>
    <circle cx="24" cy="16" r="1.5" fill="white" opacity="0.8"/>
    
    <!-- Corner Nodes -->
    <circle cx="11.5" cy="11.5" r="1" fill="white" opacity="0.6"/>
    <circle cx="20.5" cy="20.5" r="1" fill="white" opacity="0.6"/>
    <circle cx="20.5" cy="11.5" r="1" fill="white" opacity="0.6"/>
    <circle cx="11.5" cy="20.5" r="1" fill="white" opacity="0.6"/>
  </g>
  
  <!-- Subtle glow effect -->
  <circle cx="16" cy="16" r="14" fill="none" stroke="rgba(255,255,255,0.2)" stroke-width="1"/>
</svg> 